<mxfile host="app.diagrams.net" modified="2023-11-30T15:05:56.178Z" agent="Mozilla/5.0 (Windows NT 10.0; Win64; x64) AppleWebKit/537.36 (KHTML, like Gecko) Chrome/119.0.0.0 Safari/537.36 Edg/119.0.0.0" etag="UIxs_RswBq6vMdymyTHI" version="22.1.5" type="github">
  <diagram name="Page-1" id="BJMGtLgzTxhCePxi2MPz">
    <mxGraphModel dx="655" dy="399" grid="1" gridSize="10" guides="1" tooltips="1" connect="1" arrows="1" fold="1" page="1" pageScale="1" pageWidth="1169" pageHeight="827" math="0" shadow="0">
      <root>
        <mxCell id="0" />
        <mxCell id="1" parent="0" />
        <mxCell id="mg8eaORuZ8QFeEw0UvmZ-1" value="User" style="rounded=0;whiteSpace=wrap;html=1;" parent="1" vertex="1">
          <mxGeometry x="60" y="110" width="120" height="60" as="geometry" />
        </mxCell>
        <mxCell id="mg8eaORuZ8QFeEw0UvmZ-2" value="Actor" style="shape=umlActor;verticalLabelPosition=bottom;verticalAlign=top;html=1;outlineConnect=0;" parent="1" vertex="1">
          <mxGeometry x="105" y="20" width="30" height="60" as="geometry" />
        </mxCell>
        <mxCell id="mg8eaORuZ8QFeEw0UvmZ-5" value="Front End" style="rounded=0;whiteSpace=wrap;html=1;" parent="1" vertex="1">
          <mxGeometry x="250" y="110" width="130" height="60" as="geometry" />
        </mxCell>
        <mxCell id="mg8eaORuZ8QFeEw0UvmZ-6" value="" style="endArrow=none;dashed=1;html=1;dashPattern=1 3;strokeWidth=2;rounded=0;entryX=0.5;entryY=1;entryDx=0;entryDy=0;" parent="1" source="mg8eaORuZ8QFeEw0UvmZ-7" target="mg8eaORuZ8QFeEw0UvmZ-5" edge="1">
          <mxGeometry width="50" height="50" relative="1" as="geometry">
            <mxPoint x="310" y="1080" as="sourcePoint" />
            <mxPoint x="330" y="290" as="targetPoint" />
          </mxGeometry>
        </mxCell>
        <mxCell id="mg8eaORuZ8QFeEw0UvmZ-8" value="" style="endArrow=none;dashed=1;html=1;dashPattern=1 3;strokeWidth=2;rounded=0;entryX=0.5;entryY=1;entryDx=0;entryDy=0;" parent="1" target="mg8eaORuZ8QFeEw0UvmZ-7" edge="1" source="0wEApRRh0RYs8gS6DhKb-17">
          <mxGeometry width="50" height="50" relative="1" as="geometry">
            <mxPoint x="315" y="800" as="sourcePoint" />
            <mxPoint x="315" y="170" as="targetPoint" />
          </mxGeometry>
        </mxCell>
        <mxCell id="mg8eaORuZ8QFeEw0UvmZ-7" value="" style="rounded=0;whiteSpace=wrap;html=1;" parent="1" vertex="1">
          <mxGeometry x="310" y="230" width="10" height="60" as="geometry" />
        </mxCell>
        <mxCell id="mg8eaORuZ8QFeEw0UvmZ-9" value="" style="endArrow=classic;html=1;rounded=0;entryX=-0.142;entryY=0.145;entryDx=0;entryDy=0;entryPerimeter=0;" parent="1" target="mg8eaORuZ8QFeEw0UvmZ-7" edge="1">
          <mxGeometry width="50" height="50" relative="1" as="geometry">
            <mxPoint x="120" y="239" as="sourcePoint" />
            <mxPoint x="280" y="260" as="targetPoint" />
          </mxGeometry>
        </mxCell>
        <mxCell id="mg8eaORuZ8QFeEw0UvmZ-10" value="Login to application" style="text;html=1;strokeColor=none;fillColor=none;align=center;verticalAlign=middle;whiteSpace=wrap;rounded=0;" parent="1" vertex="1">
          <mxGeometry x="190" y="260" width="60" height="30" as="geometry" />
        </mxCell>
        <mxCell id="mg8eaORuZ8QFeEw0UvmZ-12" value="Back End" style="rounded=0;whiteSpace=wrap;html=1;" parent="1" vertex="1">
          <mxGeometry x="440" y="110" width="140" height="60" as="geometry" />
        </mxCell>
        <mxCell id="mg8eaORuZ8QFeEw0UvmZ-13" value="" style="endArrow=none;dashed=1;html=1;dashPattern=1 3;strokeWidth=2;rounded=0;entryX=0.5;entryY=1;entryDx=0;entryDy=0;" parent="1" source="mg8eaORuZ8QFeEw0UvmZ-14" target="mg8eaORuZ8QFeEw0UvmZ-12" edge="1">
          <mxGeometry width="50" height="50" relative="1" as="geometry">
            <mxPoint x="510" y="800" as="sourcePoint" />
            <mxPoint x="509.65999999999997" y="210" as="targetPoint" />
          </mxGeometry>
        </mxCell>
        <mxCell id="mg8eaORuZ8QFeEw0UvmZ-15" value="" style="endArrow=none;dashed=1;html=1;dashPattern=1 3;strokeWidth=2;rounded=0;entryX=0.5;entryY=1;entryDx=0;entryDy=0;" parent="1" target="mg8eaORuZ8QFeEw0UvmZ-14" edge="1" source="0wEApRRh0RYs8gS6DhKb-6">
          <mxGeometry width="50" height="50" relative="1" as="geometry">
            <mxPoint x="510" y="800" as="sourcePoint" />
            <mxPoint x="510" y="170" as="targetPoint" />
          </mxGeometry>
        </mxCell>
        <mxCell id="mg8eaORuZ8QFeEw0UvmZ-14" value="" style="rounded=0;whiteSpace=wrap;html=1;" parent="1" vertex="1">
          <mxGeometry x="505" y="380" width="10" height="60" as="geometry" />
        </mxCell>
        <mxCell id="mg8eaORuZ8QFeEw0UvmZ-16" value="" style="endArrow=classic;html=1;rounded=0;exitX=0;exitY=1;exitDx=0;exitDy=0;" parent="1" source="mg8eaORuZ8QFeEw0UvmZ-7" edge="1">
          <mxGeometry width="50" height="50" relative="1" as="geometry">
            <mxPoint x="360" y="340" as="sourcePoint" />
            <mxPoint x="315" y="350" as="targetPoint" />
            <Array as="points">
              <mxPoint x="360" y="290" />
              <mxPoint x="360" y="310" />
              <mxPoint x="360" y="350" />
            </Array>
          </mxGeometry>
        </mxCell>
        <mxCell id="mg8eaORuZ8QFeEw0UvmZ-17" value="See MyList" style="text;html=1;strokeColor=none;fillColor=none;align=center;verticalAlign=middle;whiteSpace=wrap;rounded=0;" parent="1" vertex="1">
          <mxGeometry x="360" y="305" width="60" height="30" as="geometry" />
        </mxCell>
        <mxCell id="mg8eaORuZ8QFeEw0UvmZ-18" value="DB" style="rounded=0;whiteSpace=wrap;html=1;" parent="1" vertex="1">
          <mxGeometry x="660" y="110" width="140" height="60" as="geometry" />
        </mxCell>
        <mxCell id="mg8eaORuZ8QFeEw0UvmZ-19" value="" style="endArrow=none;dashed=1;html=1;dashPattern=1 3;strokeWidth=2;rounded=0;entryX=0.5;entryY=1;entryDx=0;entryDy=0;" parent="1" source="mg8eaORuZ8QFeEw0UvmZ-20" target="mg8eaORuZ8QFeEw0UvmZ-18" edge="1">
          <mxGeometry width="50" height="50" relative="1" as="geometry">
            <mxPoint x="730" y="800" as="sourcePoint" />
            <mxPoint x="729.5699999999999" y="200" as="targetPoint" />
          </mxGeometry>
        </mxCell>
        <mxCell id="mg8eaORuZ8QFeEw0UvmZ-21" value="" style="endArrow=none;dashed=1;html=1;dashPattern=1 3;strokeWidth=2;rounded=0;entryX=0.5;entryY=1;entryDx=0;entryDy=0;" parent="1" target="mg8eaORuZ8QFeEw0UvmZ-20" edge="1">
          <mxGeometry width="50" height="50" relative="1" as="geometry">
            <mxPoint x="730" y="800" as="sourcePoint" />
            <mxPoint x="730" y="170" as="targetPoint" />
          </mxGeometry>
        </mxCell>
        <mxCell id="mg8eaORuZ8QFeEw0UvmZ-20" value="" style="rounded=0;whiteSpace=wrap;html=1;" parent="1" vertex="1">
          <mxGeometry x="725" y="440" width="10" height="60" as="geometry" />
        </mxCell>
        <mxCell id="0wEApRRh0RYs8gS6DhKb-1" value="" style="endArrow=classic;html=1;rounded=0;entryX=0;entryY=0;entryDx=0;entryDy=0;" edge="1" parent="1" target="mg8eaORuZ8QFeEw0UvmZ-14">
          <mxGeometry width="50" height="50" relative="1" as="geometry">
            <mxPoint x="320" y="380" as="sourcePoint" />
            <mxPoint x="420" y="390" as="targetPoint" />
          </mxGeometry>
        </mxCell>
        <mxCell id="0wEApRRh0RYs8gS6DhKb-3" value="Request MyList data" style="text;html=1;strokeColor=none;fillColor=none;align=center;verticalAlign=middle;whiteSpace=wrap;rounded=0;" vertex="1" parent="1">
          <mxGeometry x="380" y="390" width="70" height="30" as="geometry" />
        </mxCell>
        <mxCell id="0wEApRRh0RYs8gS6DhKb-4" value="" style="endArrow=classic;html=1;rounded=0;entryX=0;entryY=0;entryDx=0;entryDy=0;exitX=1;exitY=1;exitDx=0;exitDy=0;" edge="1" parent="1" source="mg8eaORuZ8QFeEw0UvmZ-14" target="mg8eaORuZ8QFeEw0UvmZ-20">
          <mxGeometry width="50" height="50" relative="1" as="geometry">
            <mxPoint x="500" y="460" as="sourcePoint" />
            <mxPoint x="550" y="410" as="targetPoint" />
          </mxGeometry>
        </mxCell>
        <mxCell id="0wEApRRh0RYs8gS6DhKb-5" value="&lt;font style=&quot;font-size: 12px;&quot;&gt;Validate user, request MyList &lt;br&gt;data from database&lt;/font&gt;" style="text;html=1;align=center;verticalAlign=middle;resizable=0;points=[];autosize=1;strokeColor=none;fillColor=none;" vertex="1" parent="1">
          <mxGeometry x="530" y="390" width="180" height="40" as="geometry" />
        </mxCell>
        <mxCell id="0wEApRRh0RYs8gS6DhKb-7" value="" style="endArrow=none;dashed=1;html=1;dashPattern=1 3;strokeWidth=2;rounded=0;entryX=0.5;entryY=1;entryDx=0;entryDy=0;" edge="1" parent="1" target="0wEApRRh0RYs8gS6DhKb-6">
          <mxGeometry width="50" height="50" relative="1" as="geometry">
            <mxPoint x="510" y="800" as="sourcePoint" />
            <mxPoint x="510" y="440" as="targetPoint" />
          </mxGeometry>
        </mxCell>
        <mxCell id="0wEApRRh0RYs8gS6DhKb-6" value="" style="rounded=0;whiteSpace=wrap;html=1;" vertex="1" parent="1">
          <mxGeometry x="505" y="500" width="10" height="60" as="geometry" />
        </mxCell>
        <mxCell id="0wEApRRh0RYs8gS6DhKb-8" value="" style="endArrow=classic;html=1;rounded=0;exitX=0.25;exitY=1;exitDx=0;exitDy=0;entryX=1;entryY=0;entryDx=0;entryDy=0;" edge="1" parent="1" source="mg8eaORuZ8QFeEw0UvmZ-20" target="0wEApRRh0RYs8gS6DhKb-6">
          <mxGeometry width="50" height="50" relative="1" as="geometry">
            <mxPoint x="490" y="520" as="sourcePoint" />
            <mxPoint x="540" y="470" as="targetPoint" />
          </mxGeometry>
        </mxCell>
        <mxCell id="0wEApRRh0RYs8gS6DhKb-9" value="Receive data &lt;br&gt;from database" style="text;html=1;align=center;verticalAlign=middle;resizable=0;points=[];autosize=1;strokeColor=none;fillColor=none;" vertex="1" parent="1">
          <mxGeometry x="560" y="510" width="100" height="40" as="geometry" />
        </mxCell>
        <mxCell id="0wEApRRh0RYs8gS6DhKb-10" value="" style="endArrow=none;dashed=1;html=1;dashPattern=1 3;strokeWidth=2;rounded=0;entryX=0.412;entryY=1.055;entryDx=0;entryDy=0;entryPerimeter=0;" edge="1" parent="1" source="0wEApRRh0RYs8gS6DhKb-11" target="mg8eaORuZ8QFeEw0UvmZ-1">
          <mxGeometry width="50" height="50" relative="1" as="geometry">
            <mxPoint x="110" y="800" as="sourcePoint" />
            <mxPoint x="410" y="410" as="targetPoint" />
          </mxGeometry>
        </mxCell>
        <mxCell id="0wEApRRh0RYs8gS6DhKb-12" value="" style="endArrow=none;dashed=1;html=1;dashPattern=1 3;strokeWidth=2;rounded=0;entryX=0.412;entryY=1.055;entryDx=0;entryDy=0;entryPerimeter=0;" edge="1" parent="1" source="0wEApRRh0RYs8gS6DhKb-19" target="0wEApRRh0RYs8gS6DhKb-11">
          <mxGeometry width="50" height="50" relative="1" as="geometry">
            <mxPoint x="110" y="800" as="sourcePoint" />
            <mxPoint x="109" y="173" as="targetPoint" />
          </mxGeometry>
        </mxCell>
        <mxCell id="0wEApRRh0RYs8gS6DhKb-11" value="" style="rounded=0;whiteSpace=wrap;html=1;" vertex="1" parent="1">
          <mxGeometry x="105" y="230" width="10" height="60" as="geometry" />
        </mxCell>
        <mxCell id="0wEApRRh0RYs8gS6DhKb-14" value="" style="endArrow=none;dashed=1;html=1;dashPattern=1 3;strokeWidth=2;rounded=0;entryX=0.5;entryY=1;entryDx=0;entryDy=0;" edge="1" parent="1" target="0wEApRRh0RYs8gS6DhKb-13">
          <mxGeometry width="50" height="50" relative="1" as="geometry">
            <mxPoint x="315" y="800" as="sourcePoint" />
            <mxPoint x="315" y="290" as="targetPoint" />
          </mxGeometry>
        </mxCell>
        <mxCell id="0wEApRRh0RYs8gS6DhKb-13" value="" style="rounded=0;whiteSpace=wrap;html=1;" vertex="1" parent="1">
          <mxGeometry x="310" y="560" width="10" height="60" as="geometry" />
        </mxCell>
        <mxCell id="0wEApRRh0RYs8gS6DhKb-15" value="" style="endArrow=classic;html=1;rounded=0;entryX=1;entryY=0;entryDx=0;entryDy=0;exitX=0;exitY=1;exitDx=0;exitDy=0;" edge="1" parent="1" source="0wEApRRh0RYs8gS6DhKb-6" target="0wEApRRh0RYs8gS6DhKb-13">
          <mxGeometry width="50" height="50" relative="1" as="geometry">
            <mxPoint x="350" y="600" as="sourcePoint" />
            <mxPoint x="400" y="550" as="targetPoint" />
          </mxGeometry>
        </mxCell>
        <mxCell id="0wEApRRh0RYs8gS6DhKb-16" value="Receive data &lt;br&gt;from back end" style="text;html=1;align=center;verticalAlign=middle;resizable=0;points=[];autosize=1;strokeColor=none;fillColor=none;" vertex="1" parent="1">
          <mxGeometry x="355" y="515" width="100" height="40" as="geometry" />
        </mxCell>
        <mxCell id="0wEApRRh0RYs8gS6DhKb-18" value="" style="endArrow=none;dashed=1;html=1;dashPattern=1 3;strokeWidth=2;rounded=0;entryX=0.5;entryY=1;entryDx=0;entryDy=0;" edge="1" parent="1" source="0wEApRRh0RYs8gS6DhKb-13" target="0wEApRRh0RYs8gS6DhKb-17">
          <mxGeometry width="50" height="50" relative="1" as="geometry">
            <mxPoint x="315" y="560" as="sourcePoint" />
            <mxPoint x="315" y="290" as="targetPoint" />
          </mxGeometry>
        </mxCell>
        <mxCell id="0wEApRRh0RYs8gS6DhKb-17" value="" style="rounded=0;whiteSpace=wrap;html=1;" vertex="1" parent="1">
          <mxGeometry x="310" y="354" width="10" height="60" as="geometry" />
        </mxCell>
        <mxCell id="0wEApRRh0RYs8gS6DhKb-20" value="" style="endArrow=none;dashed=1;html=1;dashPattern=1 3;strokeWidth=2;rounded=0;entryX=0.412;entryY=1.055;entryDx=0;entryDy=0;entryPerimeter=0;" edge="1" parent="1" target="0wEApRRh0RYs8gS6DhKb-19">
          <mxGeometry width="50" height="50" relative="1" as="geometry">
            <mxPoint x="110" y="800" as="sourcePoint" />
            <mxPoint x="109" y="293" as="targetPoint" />
          </mxGeometry>
        </mxCell>
        <mxCell id="0wEApRRh0RYs8gS6DhKb-19" value="" style="rounded=0;whiteSpace=wrap;html=1;" vertex="1" parent="1">
          <mxGeometry x="105" y="620" width="10" height="60" as="geometry" />
        </mxCell>
        <mxCell id="0wEApRRh0RYs8gS6DhKb-22" value="" style="endArrow=classic;html=1;rounded=0;entryX=0.75;entryY=0;entryDx=0;entryDy=0;exitX=0;exitY=1;exitDx=0;exitDy=0;" edge="1" parent="1" source="0wEApRRh0RYs8gS6DhKb-13" target="0wEApRRh0RYs8gS6DhKb-19">
          <mxGeometry width="50" height="50" relative="1" as="geometry">
            <mxPoint x="200" y="650" as="sourcePoint" />
            <mxPoint x="250" y="600" as="targetPoint" />
          </mxGeometry>
        </mxCell>
        <mxCell id="0wEApRRh0RYs8gS6DhKb-23" value="Display the data" style="text;html=1;align=center;verticalAlign=middle;resizable=0;points=[];autosize=1;strokeColor=none;fillColor=none;" vertex="1" parent="1">
          <mxGeometry x="160" y="590" width="110" height="30" as="geometry" />
        </mxCell>
      </root>
    </mxGraphModel>
  </diagram>
</mxfile>
